<?xml version="1.0" standalone="no"?>
<!DOCTYPE svg PUBLIC "-//W3C//DTD SVG 20010904//EN"
 "http://www.w3.org/TR/2001/REC-SVG-20010904/DTD/svg10.dtd">
<svg version="1.0" xmlns="http://www.w3.org/2000/svg"
 width="1244.000000pt" height="820.000000pt" viewBox="0 0 1244.000000 820.000000"
 preserveAspectRatio="xMidYMid meet">
<metadata>
Created by potrace 1.15, written by Peter Selinger 2001-2017
</metadata>
<g transform="translate(0.000000,820.000000) scale(0.100000,-0.100000)"
fill="#000000" stroke="none">
<path d="M5575 7661 l-50 -6 -3 -44 c-5 -64 15 -172 36 -201 26 -35 79 -51
130 -39 23 5 90 32 149 60 167 79 263 79 263 0 0 -39 -48 -109 -143 -209 -115
-120 -127 -138 -127 -183 0 -50 40 -97 94 -109 40 -9 83 -4 214 24 94 20 145
20 189 0 62 -30 71 -60 59 -186 -6 -59 -4 -82 7 -105 43 -81 142 -134 353
-188 76 -19 158 -45 183 -57 57 -28 118 -90 132 -137 15 -51 8 -127 -11 -124
-8 1 -98 20 -200 42 -102 23 -237 52 -300 66 -63 13 -209 44 -325 69 -314 68
-811 174 -970 207 -77 15 -259 54 -405 84 -970 204 -2614 538 -3538 719 l-233
46 -67 -21 c-221 -71 -477 -281 -572 -471 l-41 -83 6 -125 c3 -69 12 -282 20
-475 9 -192 22 -480 30 -640 8 -159 40 -839 70 -1510 30 -671 61 -1339 70
-1485 8 -146 21 -409 30 -585 8 -176 16 -349 18 -385 6 -106 63 -198 172 -275
147 -105 243 -128 645 -155 168 -11 357 -24 420 -30 63 -5 187 -14 275 -20 88
-6 282 -19 430 -30 265 -19 710 -51 1275 -91 157 -11 375 -26 485 -34 110 -8
270 -19 355 -25 85 -5 247 -17 360 -25 231 -17 631 -45 1075 -75 296 -20 533
-37 935 -65 113 -8 239 -17 280 -20 79 -5 374 -26 725 -50 116 -8 309 -21 430
-30 543 -37 2519 -178 2770 -197 83 -6 197 -12 255 -12 93 -1 111 2 160 25
167 78 218 197 205 474 -4 83 -8 182 -10 220 -10 217 -26 788 -35 1260 -34
1752 -52 2339 -76 2444 -19 85 -58 154 -116 206 -61 55 -121 83 -205 95 -38 5
-171 32 -298 60 -126 27 -356 77 -510 111 -410 89 -622 135 -1185 259 -1201
264 -1950 428 -2165 473 l-60 13 -8 70 c-18 160 -57 267 -125 337 -64 67 -124
90 -293 111 -121 16 -170 35 -202 80 -19 27 -22 44 -23 141 0 61 -6 121 -11
135 -16 36 -72 86 -118 106 -59 24 -176 29 -265 10 -87 -18 -100 -19 -100 -7
0 5 36 48 79 96 94 102 113 139 119 221 5 78 -15 123 -75 169 -61 47 -103 58
-188 53 -61 -4 -90 -13 -182 -56 -155 -74 -180 -69 -168 32 l7 56 -28 -2 c-16
0 -51 -4 -79 -7z m67 -70 c-3 -40 -1 -52 17 -70 33 -33 75 -26 196 32 105 50
114 52 192 52 74 0 85 -3 124 -30 62 -43 89 -88 89 -144 -1 -67 -28 -118 -119
-217 -61 -67 -81 -95 -81 -116 0 -17 7 -31 16 -35 9 -3 67 2 129 12 93 15 122
16 169 7 80 -16 123 -39 152 -81 22 -32 24 -46 24 -141 1 -174 43 -227 200
-250 148 -22 196 -32 243 -52 106 -46 184 -184 194 -345 6 -82 6 -83 -18 -82
-54 1 -62 11 -66 80 -5 88 -40 157 -102 204 -58 41 -94 55 -256 96 -147 36
-241 78 -291 130 -35 36 -37 42 -34 91 9 129 5 173 -18 205 -47 66 -134 79
-307 43 -132 -27 -166 -26 -204 6 -54 46 -46 67 79 200 120 127 178 221 165
266 -11 36 -35 57 -76 68 -53 15 -111 -1 -249 -66 -111 -52 -163 -64 -205 -48
-27 11 -45 61 -52 143 l-6 80 39 4 c21 2 44 4 50 5 7 1 9 -15 6 -47z m-4338
-266 c61 -14 179 -38 261 -54 83 -17 339 -69 570 -116 231 -47 517 -106 635
-130 118 -24 359 -73 535 -110 176 -36 482 -99 680 -140 198 -41 446 -92 550
-115 105 -22 264 -56 355 -75 91 -19 260 -54 375 -79 116 -24 338 -72 495
-105 157 -34 346 -74 420 -91 74 -16 241 -52 370 -80 129 -27 296 -63 370 -80
194 -42 505 -110 805 -175 143 -31 402 -87 575 -125 173 -38 428 -94 565 -124
138 -30 426 -93 640 -140 215 -47 535 -117 712 -156 178 -38 466 -101 641
-139 174 -38 396 -86 492 -106 198 -41 223 -50 280 -101 80 -72 120 -172 120
-301 0 -39 4 -73 9 -75 9 -3 26 -640 41 -1583 13 -768 28 -1409 40 -1715 16
-394 15 -520 -4 -577 -20 -59 -70 -120 -119 -147 -35 -18 -42 -18 -954 63
-1126 99 -2881 254 -4103 360 -503 44 -1790 157 -2860 251 -1070 93 -2099 183
-2287 199 -333 28 -343 29 -408 60 -79 37 -176 129 -220 211 l-30 55 -1 235
c-1 129 -6 343 -13 475 -6 132 -20 760 -31 1395 -27 1595 -40 2277 -49 2675
-9 361 -3 462 29 526 43 82 201 149 374 158 16 0 79 -10 140 -24z m-572 -212
c-10 -50 -11 -76 -3 -98 6 -18 14 -318 21 -770 6 -407 15 -1001 20 -1320 5
-319 16 -1118 25 -1775 8 -657 20 -1224 25 -1258 4 -35 15 -69 23 -75 8 -7 28
-33 45 -58 43 -64 121 -132 193 -168 67 -33 158 -55 198 -48 14 3 143 -5 286
-19 315 -29 2504 -222 5210 -459 4025 -353 4722 -415 4815 -426 109 -13 139
-6 203 51 42 37 45 34 17 -18 -38 -72 -94 -120 -172 -146 -42 -14 -66 -14
-240 -1 -106 8 -416 30 -688 50 -272 19 -589 42 -705 50 -260 18 -550 38 -940
65 -165 11 -397 27 -515 35 -582 41 -1027 72 -1440 100 -362 25 -804 55 -1025
70 -115 8 -345 24 -510 35 -165 11 -397 27 -515 35 -118 9 -251 18 -295 20
-44 3 -210 14 -370 25 -424 28 -848 57 -1200 80 -170 11 -438 29 -595 40 -157
11 -361 24 -455 30 -93 6 -224 15 -290 20 -66 5 -208 14 -315 20 -107 6 -199
15 -205 19 -5 5 -53 11 -105 14 -123 8 -204 29 -316 82 -63 30 -108 60 -146
98 -62 61 -109 148 -101 187 4 25 -34 936 -62 1450 -25 456 -43 834 -85 1730
-22 470 -47 963 -55 1095 -8 132 -22 385 -31 561 -19 372 -19 370 67 498 44
66 218 246 238 246 4 0 1 -30 -7 -67z"/>
<path d="M1404 6741 c-7 -7 -4 -164 6 -395 14 -295 19 -349 33 -343 7 2 48 1
92 -4 44 -4 152 -14 240 -23 188 -18 226 -22 363 -42 57 -8 108 -11 114 -8 8
5 9 96 3 323 -4 174 -7 325 -6 337 0 11 -15 35 -33 53 -33 32 -41 35 -233 67
-165 27 -229 33 -386 36 -104 2 -191 1 -193 -1z m245 -38 c-11 -12 -14 -64
-14 -234 l0 -218 -84 -93 c-46 -51 -88 -94 -93 -96 -4 -2 -8 18 -8 45 0 26 -7
165 -15 308 -8 143 -15 270 -15 283 0 22 2 22 121 22 112 0 120 -1 108 -17z
m311 -13 c96 -17 183 -33 192 -36 16 -5 18 -20 18 -138 0 -73 -3 -175 -7 -225
l-6 -93 -26 5 c-15 3 -105 13 -201 22 -200 20 -239 30 -257 65 -14 28 -19 376
-5 396 28 42 69 42 292 4z m265 -356 c4 -146 5 -268 2 -270 -3 -3 -12 19 -21
49 -25 85 -21 487 4 487 4 0 11 -120 15 -266z m-520 -98 c23 -8 133 -25 245
-37 127 -13 209 -27 215 -34 13 -16 51 -203 42 -211 -3 -3 -46 1 -94 9 -48 9
-128 18 -178 22 -49 3 -157 13 -240 20 -82 8 -168 16 -189 17 l-39 3 91 105
c51 57 92 108 92 112 0 11 9 10 55 -6z"/>
<path d="M2653 6542 c-3 -7 0 -142 7 -300 6 -158 12 -309 13 -336 l2 -50 115
-17 c63 -10 248 -40 410 -67 162 -28 426 -71 585 -97 160 -25 312 -50 338 -56
27 -5 137 -23 245 -39 108 -17 220 -35 247 -40 28 -6 163 -28 300 -49 138 -22
351 -56 475 -76 123 -19 230 -33 237 -31 18 7 17 162 -2 291 -8 55 -15 141
-15 191 0 79 -3 95 -22 120 -12 16 -27 32 -33 36 -21 15 -339 87 -415 94 -230
21 -254 25 -283 50 -15 13 -37 24 -48 24 -10 0 -51 9 -91 19 -86 23 -245 46
-418 60 -93 8 -131 15 -150 29 -49 36 -313 99 -444 106 -28 2 -106 4 -173 5
l-122 1 -16 29 c-9 18 -25 31 -42 35 -189 37 -322 57 -438 66 -224 16 -257 17
-262 2z m234 -229 c2 -113 5 -214 8 -224 4 -13 -18 -37 -87 -93 -51 -42 -96
-76 -100 -76 -5 0 -8 14 -8 31 0 54 -20 472 -24 522 l-5 47 107 0 107 0 2
-207z m311 165 c115 -22 166 -36 172 -47 6 -13 -6 -401 -13 -407 -4 -3 -252
25 -342 38 l-90 13 -9 177 c-5 97 -5 198 -1 224 l7 47 56 -7 c31 -3 130 -20
220 -38z m400 -94 l60 -7 1 -201 c1 -110 3 -209 4 -218 3 -24 -174 -184 -183
-166 -4 7 -10 90 -14 183 -3 94 -9 225 -12 293 l-7 122 45 0 c25 0 72 -3 106
-6z m-170 -157 c1 -73 4 -193 8 -267 3 -74 4 -132 0 -129 -16 15 -52 156 -45
175 4 10 8 99 8 198 1 151 3 177 15 167 11 -9 14 -44 14 -144z m482 122 c149
-28 208 -47 219 -67 6 -11 7 -93 4 -205 l-6 -187 -41 0 c-74 0 -370 51 -382
66 -17 22 -29 375 -14 404 13 25 35 24 220 -11z m410 -106 l85 -6 0 -166 c0
-91 3 -188 7 -216 l7 -50 -91 -73 c-58 -47 -95 -69 -101 -63 -5 5 -13 131 -18
281 -5 149 -11 275 -14 281 -10 15 6 31 24 24 9 -4 54 -9 101 -12z m218 -19
c146 -27 285 -63 298 -76 12 -13 26 -378 15 -378 -9 0 -295 39 -339 46 -61 10
-66 16 -73 101 -12 125 -11 323 2 323 6 0 49 -7 97 -16z m-360 -254 c0 -193
-1 -203 -15 -170 -8 19 -15 44 -15 55 2 129 17 364 23 345 4 -14 7 -117 7
-230z m699 113 c-3 -10 -5 -4 -5 12 0 17 2 24 5 18 2 -7 2 -21 0 -30z m161 16
l82 -13 0 -141 c0 -78 5 -166 10 -196 l10 -54 -89 -89 c-50 -50 -92 -88 -95
-85 -7 7 -25 193 -36 384 -6 99 -13 188 -16 199 -5 15 -2 17 23 13 15 -3 65
-11 111 -18z m227 -25 c137 -29 270 -67 288 -82 15 -13 17 -36 17 -189 l0
-173 -22 5 c-13 2 -77 14 -143 24 -171 28 -222 40 -235 56 -13 15 -36 346 -26
371 4 11 13 14 29 10 12 -4 54 -13 92 -22z m-2264 -34 c82 -16 269 -40 311
-40 20 0 40 -6 45 -12 11 -18 63 -222 58 -227 -3 -2 -76 8 -162 22 -87 14
-237 38 -333 53 -96 14 -184 29 -194 33 -16 6 -2 22 85 94 57 47 111 86 120
87 9 0 41 -5 70 -10z m1886 -72 c-2 -13 -4 -3 -4 22 0 25 2 35 4 23 2 -13 2
-33 0 -45z m-1004 -79 c93 -16 183 -29 202 -29 19 0 36 -4 39 -9 10 -16 48
-202 42 -208 -3 -3 -40 0 -83 6 -184 29 -578 94 -581 96 -2 2 39 44 90 94 61
59 98 89 108 85 8 -3 91 -19 183 -35z m1004 -41 c-2 -13 -4 -5 -4 17 -1 22 1
32 4 23 2 -10 2 -28 0 -40z m-187 -81 l154 -22 8 -30 c29 -117 45 -191 42
-194 -4 -4 -194 25 -592 91 -35 6 -62 14 -60 18 2 4 42 40 91 80 48 40 87 77
87 83 0 11 27 8 270 -26z m199 -39 c0 -38 -1 -40 -10 -19 -8 22 -4 61 7 61 2
0 4 -19 3 -42z m320 -54 c44 -15 231 -50 331 -62 l55 -7 3 -97 c3 -96 2 -98
-20 -98 -22 1 -270 39 -486 76 l-103 17 28 31 c15 17 48 52 72 78 25 26 49 54
53 63 11 18 12 18 67 -1z"/>
<path d="M5925 5920 c-11 -17 49 -561 64 -589 5 -8 22 -16 38 -17 15 -1 114
-18 218 -39 211 -41 848 -158 1280 -236 154 -27 427 -77 607 -109 179 -33 334
-60 342 -60 20 0 21 75 5 300 -16 229 -17 230 -64 247 -117 42 -396 105 -485
110 -66 3 -130 15 -210 39 -162 47 -226 61 -376 84 -72 11 -173 33 -224 49
-116 38 -283 74 -334 72 -67 -2 -217 19 -231 33 -19 18 -330 94 -460 111 -131
17 -162 18 -170 5z m147 -26 c66 -7 67 -9 68 -129 1 -44 5 -118 10 -165 l8
-85 -71 -72 c-39 -40 -74 -70 -77 -68 -4 3 -10 37 -14 77 -7 77 -29 247 -45
363 -15 102 -16 98 27 91 20 -3 62 -8 94 -12z m288 -53 l175 -48 6 -74 c4 -41
7 -116 8 -167 l1 -93 -47 7 c-151 22 -304 51 -313 60 -5 5 -14 67 -20 138 -14
173 -13 226 3 226 6 -1 91 -22 187 -49z m396 -97 c29 -4 32 -8 37 -52 4 -26 9
-105 13 -175 l7 -129 -74 -74 c-40 -41 -76 -74 -80 -74 -11 0 -38 194 -43 320
-3 69 -9 142 -12 163 l-7 38 64 -6 c35 -3 78 -8 95 -11z m-179 -36 c-3 -7 -5
-2 -5 12 0 14 2 19 5 13 2 -7 2 -19 0 -25z m462 -10 c109 -27 135 -36 141 -53
10 -26 33 -306 25 -313 -4 -5 -165 24 -296 54 l-66 15 -6 102 c-4 56 -10 133
-14 171 l-6 69 44 -7 c24 -4 104 -21 178 -38z m281 -68 c36 -6 72 -13 81 -15
13 -4 18 -36 27 -177 l12 -172 -77 -78 c-51 -51 -80 -74 -84 -65 -3 6 -9 57
-13 112 -12 186 -24 331 -31 368 -8 42 -11 42 85 27z m483 -116 c24 -6 27 -11
27 -48 0 -22 3 -92 7 -155 l6 -114 -24 5 c-13 3 -94 20 -179 37 -85 18 -158
36 -162 40 -5 4 -10 36 -13 71 -3 36 -11 104 -17 152 -6 48 -8 93 -5 101 4 12
35 6 169 -34 90 -27 175 -52 191 -55z m-1215 -41 c-4 -23 -6 -25 -12 -10 -5 9
-5 34 0 55 7 34 8 35 12 10 2 -16 2 -40 0 -55z m-275 2 c67 -13 146 -27 175
-31 29 -4 56 -12 60 -18 11 -17 52 -180 46 -185 -2 -3 -64 5 -137 18 -306 53
-422 77 -419 86 5 17 133 155 143 155 5 0 65 -11 132 -25z m1701 4 c5 -4 11
-32 13 -61 2 -29 8 -101 14 -160 l11 -107 -67 -63 c-37 -35 -71 -64 -75 -66
-5 -2 -11 23 -15 55 -3 32 -12 108 -20 168 -7 61 -14 130 -14 155 0 25 -4 58
-7 73 l-6 29 78 -7 c44 -4 83 -11 88 -16z m201 -28 c200 -57 213 -62 220 -80
3 -8 10 -73 15 -143 5 -70 12 -151 15 -180 5 -39 4 -49 -4 -38 -6 8 -11 27
-11 43 0 15 -1 27 -2 27 -17 1 -360 79 -363 82 -9 8 -45 319 -38 330 2 4 9 5
16 3 7 -2 75 -22 152 -44z m-1628 -33 c-3 -8 -6 -5 -6 6 -1 11 2 17 5 13 3 -3
4 -12 1 -19z m341 -57 c43 -11 116 -27 164 -37 49 -9 95 -22 103 -28 15 -11
44 -161 33 -172 -4 -3 -66 6 -140 20 -73 14 -187 35 -253 46 -66 12 -126 24
-134 26 -10 3 11 31 64 84 44 44 81 80 83 80 2 0 38 -9 80 -19z m726 -151 c82
-17 153 -33 157 -36 10 -6 44 -152 37 -159 -7 -7 -506 80 -516 89 -3 4 25 38
64 77 51 51 74 69 89 65 11 -2 87 -18 169 -36z m566 -101 c74 -18 152 -36 173
-41 30 -7 37 -13 37 -33 0 -13 5 -46 12 -74 6 -28 9 -53 6 -56 -4 -5 -476 77
-512 88 -8 3 133 146 144 147 3 0 66 -14 140 -31z"/>
<path d="M1355 5712 c-9 -9 -6 -582 5 -872 10 -275 23 -743 41 -1495 5 -220
10 -597 10 -837 1 -304 5 -442 13 -453 14 -18 132 -35 491 -70 149 -14 351
-34 450 -45 99 -11 326 -33 505 -50 179 -17 386 -37 460 -45 74 -8 356 -35
625 -60 724 -67 1004 -93 1160 -110 77 -8 406 -40 730 -70 798 -75 1292 -123
1400 -135 50 -6 335 -35 635 -65 678 -68 1342 -138 1565 -164 185 -22 432 -51
705 -81 250 -29 893 -108 970 -120 88 -13 394 -50 421 -50 l22 0 -7 433 c-3
238 -11 552 -16 697 -5 146 -16 501 -25 790 -8 289 -21 606 -27 705 -7 99 -13
228 -13 287 0 104 -1 107 -23 113 -74 19 -225 46 -272 51 -107 9 -154 15 -169
24 -41 21 -628 130 -702 130 -34 0 -37 -3 -43 -34 -4 -19 -2 -94 4 -167 6 -72
9 -133 8 -134 -2 -1 -36 -30 -76 -64 -46 -40 -74 -57 -76 -49 -3 7 -7 111 -10
231 l-7 217 63 1 63 1 -64 10 c-35 5 -75 15 -90 22 -39 20 -213 56 -272 56
l-52 0 5 -180 5 -180 -66 -50 -66 -51 -7 43 c-10 67 -29 399 -22 409 3 5 33 9
67 10 l62 1 -76 12 c-42 6 -83 17 -91 23 -17 15 -221 56 -388 78 -69 9 -133
21 -143 26 -23 13 -246 56 -407 79 -69 10 -150 27 -180 38 -78 29 -242 59
-400 73 -91 8 -146 18 -170 30 -36 19 -309 70 -500 94 -58 7 -136 23 -175 34
-119 36 -315 72 -425 78 -62 4 -114 12 -126 20 -40 25 -421 101 -549 108 -80
4 -125 11 -135 20 -29 26 -352 85 -523 96 -131 8 -163 13 -185 29 -31 22 -123
43 -267 60 -55 7 -103 14 -106 16 -3 2 -74 8 -158 14 -125 8 -156 13 -179 30
-37 27 -294 67 -544 85 -109 8 -205 19 -215 24 -10 6 -67 20 -128 32 -253 49
-353 62 -497 65 -134 2 -150 4 -178 24 -60 42 -490 95 -675 83 -88 -6 -91 -5
-139 25 -50 32 -173 66 -281 77 -33 3 -98 10 -145 16 -96 11 -387 19 -395 11z
m251 -44 c-3 -13 -9 -112 -13 -220 -5 -171 -4 -200 10 -221 16 -25 15 -25 -97
-130 l-113 -106 -6 162 c-4 89 -10 246 -14 350 l-6 187 123 0 c122 0 122 0
116 -22z m214 -3 c128 -16 276 -47 311 -65 18 -10 19 -20 15 -208 -2 -108 -8
-205 -11 -215 -6 -15 -15 -17 -44 -13 -20 3 -96 11 -169 16 -155 12 -258 32
-279 53 -13 12 -15 47 -13 198 1 160 3 217 9 253 0 4 13 6 29 2 15 -3 83 -13
152 -21z m389 -360 c0 -229 -1 -238 -16 -195 -16 47 -19 237 -7 389 12 143 24
46 23 -194z m521 230 c192 -30 233 -39 251 -61 10 -12 12 -63 10 -217 -1 -110
-5 -205 -8 -210 -6 -10 -133 -2 -253 18 -47 8 -113 17 -147 21 -42 4 -64 11
-68 22 -6 16 -24 319 -25 410 l0 52 38 -5 c20 -3 111 -17 202 -30z m-269 -35
c4 -30 9 -137 12 -236 l6 -182 -104 -91 c-57 -50 -105 -91 -108 -91 -13 0 -19
104 -21 371 l-2 290 106 -3 105 -3 6 -55z m837 -250 c2 -107 4 -215 5 -240 l2
-44 -100 -78 c-99 -76 -125 -90 -125 -65 0 6 -7 138 -15 292 -8 154 -15 293
-15 308 l0 28 123 -3 122 -3 3 -195z m172 174 c103 -17 310 -60 315 -66 1 -1
4 -95 6 -208 4 -198 3 -205 -16 -209 -11 -2 -113 9 -226 25 l-207 29 -6 50
c-3 27 -6 130 -6 228 l0 177 23 -5 c12 -2 65 -12 117 -21z m536 -94 l51 0 7
-212 c3 -117 7 -221 9 -230 1 -11 -32 -48 -88 -98 -49 -44 -92 -80 -96 -80
-11 0 -18 80 -29 354 -6 136 -11 251 -12 255 -2 20 7 23 55 17 28 -3 75 -6
103 -6z m285 -30 c246 -40 255 -43 268 -83 5 -17 10 -115 10 -216 1 -166 0
-182 -15 -171 -18 16 -72 24 -284 45 -85 8 -157 18 -161 23 -12 12 -23 432
-12 432 6 0 93 -13 194 -30z m528 -96 c2 -2 5 -79 6 -171 2 -92 8 -190 13
-216 l10 -48 -67 -53 c-103 -81 -141 -109 -145 -105 -10 13 -27 224 -32 403
l-7 208 109 -7 c60 -4 111 -9 113 -11z m-1782 -194 l-2 -35 -11 35 c-7 21 -9
69 -6 115 l6 80 8 -80 c5 -44 7 -96 5 -115z m2027 165 c123 -16 168 -29 209
-58 29 -20 29 -20 26 -121 -2 -55 1 -135 5 -177 l8 -76 -28 -11 c-24 -9 -64
-6 -219 21 l-189 32 -8 35 c-5 19 -11 113 -14 209 l-5 174 53 -7 c29 -3 102
-13 162 -21z m-3274 -11 c47 -8 148 -19 224 -24 77 -5 143 -13 146 -17 4 -5
14 -44 23 -88 10 -44 20 -91 24 -104 l6 -23 -89 7 c-49 3 -150 13 -224 20 -74
8 -205 19 -290 25 -84 5 -157 13 -162 18 -4 4 39 54 95 110 95 96 104 103 132
97 16 -4 68 -13 115 -21z m3701 -70 l44 -6 0 -213 c0 -117 -2 -215 -5 -218 -3
-2 -41 -36 -84 -76 -44 -39 -85 -71 -93 -71 -10 0 -13 23 -13 98 0 55 -3 187
-7 295 l-6 197 60 0 c33 0 80 -3 104 -6z m279 -41 c144 -31 179 -42 200 -63
l26 -25 -6 -165 -5 -165 -38 -9 c-29 -7 -77 -4 -190 13 -84 13 -157 26 -164
28 -20 8 -25 57 -27 249 -2 164 -1 184 13 180 9 -3 95 -22 191 -43z m-3085
-12 c66 -11 163 -24 215 -28 l94 -8 8 -35 c4 -19 13 -68 21 -107 l13 -73 -35
0 c-20 0 -126 13 -236 29 -110 16 -254 35 -320 42 -66 7 -124 16 -129 20 -5 4
20 34 55 66 35 32 77 73 94 91 34 38 16 37 220 3z m3488 -70 l37 -6 3 -209 2
-208 -78 -61 c-42 -33 -79 -58 -81 -56 -8 8 -26 229 -32 392 l-6 167 59 -6
c32 -4 75 -9 96 -13z m258 -42 c100 -22 193 -48 206 -57 23 -16 24 -20 19
-106 -3 -49 -6 -124 -6 -168 l0 -78 -52 0 c-54 0 -334 53 -346 65 -8 8 -16
385 -8 385 2 0 87 -18 187 -41z m-2876 7 c55 -8 123 -17 151 -21 l51 -6 21
-82 c12 -45 25 -93 28 -106 7 -23 7 -23 -57 -16 -35 4 -154 20 -264 35 -110
16 -237 32 -283 36 -45 4 -81 10 -80 14 2 5 53 45 113 89 l110 81 55 -4 c30
-3 100 -11 155 -20z m-1969 -2 l51 -6 -18 -34 c-15 -30 -17 -54 -12 -162 2
-70 10 -172 17 -227 12 -97 12 -100 -8 -116 -12 -9 -55 -44 -96 -78 -41 -34
-78 -61 -82 -61 -4 0 -8 -7 -8 -15 0 -8 3 -15 8 -15 8 0 84 61 166 133 l54 47
133 -15 c74 -9 181 -20 239 -25 58 -4 164 -15 235 -24 72 -8 168 -19 214 -23
l83 -8 34 -94 c18 -52 31 -97 29 -100 -3 -2 -105 8 -228 22 -207 25 -498 47
-818 63 -75 3 -142 10 -150 14 -15 10 -25 168 -32 519 l-5 223 72 -6 c39 -4
94 -9 122 -12z m264 -24 c58 -5 158 -14 222 -19 65 -6 126 -14 136 -20 11 -6
98 -20 193 -31 96 -12 183 -25 193 -29 18 -7 20 -21 24 -172 2 -90 7 -224 10
-296 4 -73 6 -133 4 -133 -2 0 -12 20 -22 43 -17 38 -20 73 -23 278 -2 156 -7
241 -15 254 -9 16 -11 -30 -12 -214 l0 -234 -107 7 c-59 3 -164 13 -233 21
-216 25 -433 45 -481 45 -25 0 -53 6 -62 13 -21 15 -36 142 -40 325 -2 130 -1
134 22 153 27 22 46 23 191 9z m1985 -55 c7 -59 3 -86 -10 -74 -2 3 -11 31
-20 64 -12 46 -12 61 -2 67 22 14 25 9 32 -57z m412 -5 c194 -20 273 -33 284
-46 12 -15 45 -172 37 -180 -6 -6 -582 53 -632 64 l-29 7 39 27 c21 15 66 53
99 86 44 43 66 58 82 56 12 -2 66 -9 120 -14z m2625 -190 l8 -195 -88 -83 -87
-82 -12 127 c-13 143 -17 416 -6 427 4 4 46 5 93 4 l85 -3 7 -195z m140 164
c117 -20 215 -42 249 -55 l27 -10 7 -170 c4 -94 5 -172 3 -174 -2 -3 -47 2
-99 10 -52 8 -136 20 -188 27 -78 10 -94 16 -101 33 -4 11 -11 95 -15 188 -7
150 -6 167 9 167 9 0 58 -7 108 -16z m-4232 -37 c76 -11 85 -14 82 -32 -15
-91 -7 -336 14 -443 5 -24 -3 -35 -81 -100 -47 -40 -92 -75 -99 -78 -10 -4
-15 12 -19 56 -7 65 -22 307 -31 498 l-6 112 28 -1 c15 0 65 -6 112 -12z m478
-47 c79 -10 149 -23 154 -28 11 -11 1 -158 -24 -371 l-11 -94 -91 7 c-150 10
-288 26 -333 38 -49 12 -46 5 -63 182 -14 155 -13 247 4 272 13 18 23 19 118
16 56 -2 168 -12 246 -22z m1803 -14 c152 -28 205 -33 232 -22 15 7 17 0 17
-87 0 -53 -4 -98 -9 -101 -4 -3 -35 -1 -67 4 -32 6 -169 21 -304 35 -134 14
-248 29 -253 34 -13 13 204 172 228 167 11 -3 81 -16 156 -30z m2435 10 c1 -1
9 -84 18 -186 l16 -185 -48 -45 c-27 -25 -67 -60 -89 -78 l-41 -32 -6 57 c-5
48 -36 450 -36 475 0 6 179 0 186 -6z m197 -40 c90 -18 175 -41 189 -50 25
-16 25 -20 30 -174 3 -86 2 -161 -3 -166 -10 -11 -327 40 -346 56 -7 6 -13 29
-13 52 0 23 -4 77 -9 121 -17 150 -21 195 -17 195 3 0 79 -15 169 -34z m-4113
1 c60 -9 85 -17 87 -27 1 -8 4 -118 6 -243 l4 -229 -86 -74 c-47 -41 -90 -73
-96 -71 -10 4 -17 101 -30 455 -8 195 -7 202 11 202 10 -1 57 -7 104 -13z
m310 -37 c176 -14 294 -30 304 -40 5 -5 1 -18 -8 -31 -13 -19 -16 -52 -16
-175 0 -83 -3 -173 -7 -199 l-6 -47 -61 7 c-34 4 -130 12 -214 19 -108 8 -155
15 -161 25 -14 23 -38 432 -26 451 4 7 20 9 39 6 17 -3 87 -10 156 -16z m1825
-40 c134 -22 226 -26 257 -9 11 6 23 8 26 4 4 -4 8 -51 9 -106 2 -88 1 -99
-15 -99 -79 1 -603 78 -601 89 2 16 164 141 182 141 12 0 76 -9 142 -20z
m2365 0 l26 0 3 -132 c3 -73 5 -157 5 -187 l1 -55 -80 -62 c-44 -34 -81 -61
-82 -60 -1 1 -7 98 -13 216 -5 118 -13 233 -15 254 l-6 39 68 -6 c37 -4 79 -7
93 -7z m-3680 -16 l35 -5 0 -172 c0 -95 3 -203 7 -242 l7 -70 -79 -65 c-107
-89 -110 -89 -110 2 0 41 -7 152 -14 248 -13 149 -20 281 -17 314 1 8 84 3
171 -10z m3887 -15 c76 -17 153 -37 171 -44 l32 -14 2 -120 c4 -215 4 -206
-11 -203 -8 2 -84 14 -169 27 -85 14 -157 27 -160 30 -9 9 -28 295 -23 348 1
11 7 10 158 -24z m-3602 -27 c66 -11 146 -24 178 -27 l57 -6 0 -221 0 -221
-72 7 c-216 19 -352 36 -360 44 -24 24 -38 394 -17 434 13 23 26 23 214 -10z
m-471 -382 c6 -131 6 -134 -10 -100 -19 39 -21 82 -15 315 l4 160 7 -120 c4
-66 10 -181 14 -255z m2246 335 c69 -14 141 -25 160 -23 l35 3 6 -90 c3 -50 4
-92 3 -94 -2 -2 -52 3 -111 12 -60 9 -180 26 -268 37 -88 12 -173 25 -190 29
l-30 7 64 49 c36 28 79 63 95 78 36 33 45 32 236 -8z m-1523 -22 c-3 -10 -5
-4 -5 12 0 17 2 24 5 18 2 -7 2 -21 0 -30z m170 16 c43 -6 81 -13 85 -15 4 -3
0 -17 -10 -31 -23 -37 -30 -278 -10 -375 l14 -67 -40 -39 c-60 -57 -136 -116
-142 -110 -6 6 -21 249 -30 481 l-7 167 31 0 c17 0 66 -5 109 -11z m3518 5
l51 -6 -4 -92 c-2 -50 1 -134 7 -186 l11 -95 -26 -19 c-15 -11 -49 -39 -77
-63 -28 -23 -53 -41 -55 -38 -3 2 -9 89 -13 192 -4 104 -11 216 -14 251 l-7
62 39 0 c21 0 61 -3 88 -6z m-5187 -284 l1 -105 -19 60 c-17 53 -18 73 -10
180 5 66 10 125 11 130 5 24 17 -169 17 -265z m5436 244 c72 -15 141 -33 154
-41 13 -8 57 -15 103 -17 45 -2 84 -8 88 -12 5 -5 13 -82 20 -172 l12 -163
-78 -75 -78 -74 -7 32 c-3 18 -9 128 -14 243 -8 228 -21 244 -23 28 -1 -151 6
-143 -96 -119 -33 8 -96 20 -141 26 -44 7 -86 15 -93 20 -10 5 -15 56 -19 179
l-5 171 23 0 c13 0 83 -12 154 -26z m-3402 -23 c92 -15 170 -30 173 -32 6 -6
19 -429 14 -429 -2 0 -60 7 -129 15 -69 8 -156 15 -195 16 -117 2 -118 2 -133
94 -8 48 -11 130 -9 203 6 183 0 180 279 133z m1636 -32 c103 -17 190 -33 193
-37 4 -4 10 -42 13 -84 7 -78 7 -78 -17 -78 -14 0 -143 16 -287 35 -144 19
-264 35 -266 35 -2 0 -4 4 -4 9 0 8 167 151 177 151 2 0 89 -14 191 -31z
m-1246 -25 c14 -4 15 -10 8 -30 -18 -48 -10 -274 16 -409 5 -29 1 -34 -80 -89
-48 -33 -89 -56 -93 -52 -4 4 -11 89 -14 189 -4 100 -10 233 -14 296 l-6 113
83 -7 c46 -3 91 -9 100 -11z m3528 -19 c198 -35 197 -34 201 -220 l4 -140 -45
3 c-42 3 -197 26 -247 37 -13 3 -23 15 -27 32 -11 52 -27 293 -21 303 3 5 16
8 28 5 12 -2 60 -11 107 -20z m-3275 -15 c50 -6 117 -15 151 -21 l61 -11 5
-211 c3 -117 4 -214 2 -216 -5 -5 -272 18 -342 30 -75 13 -76 15 -91 152 -14
122 -14 238 -1 273 12 30 -8 30 215 4z m1593 -54 c75 -14 153 -26 172 -28 l35
-3 5 -75 c3 -41 5 -77 3 -79 -2 -3 -94 8 -206 23 -111 15 -222 29 -247 32 -68
8 -92 14 -88 23 7 19 164 140 176 136 7 -3 75 -16 150 -29z m-1231 3 c43 -6
79 -12 81 -13 1 -2 -5 -19 -13 -39 -19 -45 -19 -144 -1 -297 8 -63 11 -118 8
-121 -43 -36 -142 -109 -150 -109 -13 0 -20 70 -32 320 -6 113 -13 220 -16
238 -7 38 -3 39 123 21z m3431 -24 c111 -23 171 -44 182 -65 12 -22 14 -287 3
-293 -5 -2 -42 2 -83 9 -41 7 -105 16 -142 20 -66 6 -68 7 -73 38 -8 48 -23
290 -18 299 6 11 46 9 131 -8z m-6957 -16 c11 -6 111 -19 221 -29 110 -10 203
-21 205 -24 7 -7 43 -137 43 -155 0 -11 -11 -12 -52 -7 -53 7 -540 35 -610 36
-21 0 -38 4 -38 9 0 10 191 181 203 181 5 0 17 -5 28 -11z m3874 -13 c173 -26
156 -15 153 -99 -1 -39 1 -136 6 -214 l9 -143 -24 0 c-38 0 -296 38 -339 50
-22 6 -41 18 -44 28 -11 38 -28 274 -24 321 7 74 20 84 93 78 33 -2 110 -12
170 -21z m1519 -45 l151 -27 0 -79 0 -80 -55 3 c-30 2 -114 14 -185 27 -72 14
-158 27 -190 31 -94 10 -96 16 -30 65 32 24 72 56 89 71 20 18 38 25 50 22 10
-4 87 -18 170 -33z m-1241 4 c20 -3 53 -7 72 -10 l34 -6 -16 -34 c-15 -31 -15
-47 -5 -142 7 -60 14 -144 17 -188 l6 -80 -81 -64 c-59 -46 -84 -60 -90 -51
-4 7 -11 87 -15 179 -3 91 -11 217 -16 279 -5 63 -6 118 -3 123 3 6 18 8 32 5
15 -3 44 -8 65 -11z m3532 -66 c254 -50 363 -74 370 -80 2 -2 7 -68 11 -147 8
-164 20 -150 -115 -127 -181 30 -468 75 -524 81 -38 5 -61 12 -66 23 -11 21
-25 286 -16 301 9 14 22 12 340 -51z m-9115 25 c110 -8 133 -14 121 -27 -24
-30 -29 -98 -16 -234 8 -76 15 -165 16 -198 l3 -60 -100 -82 c-54 -44 -102
-78 -106 -74 -4 3 -10 161 -14 350 -7 336 -7 344 12 337 10 -4 48 -9 84 -12z
m2320 -4 c264 -23 320 -32 320 -50 0 -10 9 -48 21 -85 11 -37 18 -69 15 -72
-2 -3 -121 5 -263 17 -142 13 -291 25 -330 27 -40 3 -73 8 -73 12 0 9 174 169
180 166 3 -2 62 -9 130 -15z m3618 -13 c78 -14 145 -26 147 -28 2 -3 7 -93 11
-202 l7 -197 -39 0 c-71 0 -319 33 -331 44 -11 10 -36 233 -37 335 -1 52 32
86 74 77 14 -3 89 -16 168 -29z m-5393 -18 c77 -5 230 -21 340 -34 110 -13
233 -27 272 -31 40 -3 77 -12 83 -19 7 -8 12 -98 13 -239 l2 -227 -24 -6 c-26
-6 -256 13 -626 52 -126 13 -277 28 -334 32 -126 10 -114 -11 -131 233 -13
176 -10 212 18 244 18 20 47 19 387 -5z m5688 -27 l58 -7 4 -165 c3 -91 9
-187 14 -215 10 -49 9 -51 -22 -78 -18 -16 -54 -44 -82 -63 l-50 -34 -7 32
c-3 18 -9 98 -12 178 -4 80 -9 196 -12 257 l-5 113 28 -6 c15 -2 54 -8 86 -12z
m1083 -7 c44 -8 109 -20 146 -27 53 -9 68 -16 72 -32 9 -32 7 -114 -2 -120 -5
-3 -112 13 -238 34 -126 22 -230 40 -231 40 -2 0 -3 4 -3 9 0 17 145 120 161
115 9 -3 52 -11 95 -19z m-4274 -14 c40 -5 127 -15 193 -21 177 -17 158 -6
179 -111 9 -50 15 -93 13 -96 -3 -2 -47 3 -98 11 -52 8 -139 20 -194 25 -413
43 -376 26 -274 122 46 43 89 78 96 79 6 0 45 -4 85 -9z m3485 -22 c72 -12
136 -25 142 -29 11 -6 30 -240 31 -364 l0 -49 -70 7 c-76 7 -270 42 -278 51
-10 10 -21 102 -28 237 -8 151 -3 168 45 168 14 0 85 -10 158 -21z m-5201
-194 c7 -99 15 -234 18 -300 l7 -120 -21 38 c-30 55 -53 204 -47 307 3 47 2
122 -1 168 -4 46 -5 85 -3 88 3 3 12 3 21 2 12 -3 17 -35 26 -183z m243 169
c8 -2 10 -11 6 -22 -20 -47 -22 -112 -10 -292 7 -107 10 -198 7 -201 -28 -25
-171 -139 -175 -139 -2 0 -7 44 -10 98 -7 124 -26 374 -36 477 -5 44 -7 82 -6
85 4 6 204 1 224 -6z m8074 0 c15 -5 17 -21 17 -150 l0 -145 -56 -52 c-31 -29
-60 -53 -64 -55 -4 -1 -10 75 -14 170 -3 94 -9 190 -13 211 l-6 40 59 -7 c32
-4 67 -9 77 -12z m184 -24 c52 -11 99 -22 104 -25 5 -3 8 -66 8 -140 0 -132
-1 -135 -22 -135 -44 1 -217 27 -224 33 -4 4 -9 73 -11 154 l-5 146 27 -7 c15
-4 70 -16 123 -26z m-8017 9 c58 -6 113 -15 122 -20 9 -5 36 -12 60 -15 23 -4
51 -15 61 -24 25 -24 37 -114 37 -291 0 -118 -3 -149 -15 -159 -12 -10 -44
-10 -152 0 -236 20 -306 29 -313 40 -8 12 -20 238 -20 357 0 65 3 77 25 98 28
29 44 30 195 14z m6128 -16 l142 -18 0 -78 0 -79 -27 6 c-16 3 -118 17 -228
32 -110 14 -204 30 -209 34 -4 5 20 36 55 69 55 53 68 61 94 57 17 -3 94 -13
173 -23z m-1113 3 c53 -9 69 -16 66 -27 -11 -33 -12 -231 -2 -314 l10 -90 -37
-34 c-62 -56 -102 -84 -109 -77 -4 4 -13 100 -19 214 -7 114 -15 237 -19 275
-7 78 -13 75 110 53z m-3055 -21 c25 -3 114 -10 197 -17 84 -6 157 -15 163
-18 6 -4 13 -43 17 -88 l6 -83 -59 6 c-32 3 -93 10 -134 15 -41 5 -131 14
-200 20 -69 6 -149 13 -178 16 l-53 6 83 78 c52 50 89 77 98 74 8 -3 35 -7 60
-9z m3378 -28 l107 -22 16 -190 c8 -104 12 -194 9 -198 -9 -10 -220 11 -287
29 -31 9 -57 22 -63 34 -6 11 -13 89 -17 174 -5 137 -4 158 11 181 20 31 31
30 224 -8z m-5026 -57 c-4 -80 -16 -85 -26 -11 -4 28 -11 53 -16 56 -19 12
-10 25 18 25 l27 0 -3 -70z m163 52 c73 -7 80 -9 76 -27 -13 -70 -11 -291 4
-376 l16 -94 -43 -37 c-77 -67 -149 -113 -157 -100 -6 10 -20 254 -34 589 l-3
61 31 -5 c16 -2 66 -7 110 -11z m310 -28 c55 -3 114 -7 130 -9 45 -3 91 -31
103 -62 14 -35 33 -395 21 -407 -4 -5 -94 -3 -214 5 -190 12 -208 15 -221 34
-18 27 -38 238 -32 338 4 69 8 83 28 99 17 14 34 18 55 14 16 -3 75 -8 130
-12z m4778 -9 c43 -8 80 -15 80 -15 1 0 2 -48 2 -107 0 -60 4 -153 8 -208 l8
-100 -65 -52 c-35 -29 -69 -53 -74 -53 -5 0 -12 55 -16 123 -4 67 -13 185 -21
262 -17 163 -17 165 -7 165 4 0 42 -7 85 -15z m1080 -7 l127 -22 0 -68 c0 -38
-3 -68 -7 -68 -5 0 -78 11 -163 24 -85 14 -181 28 -212 31 -32 4 -58 10 -58
15 0 16 136 109 160 110 14 0 82 -10 153 -22z m-3786 -38 c73 -6 137 -9 142
-6 12 8 20 -31 22 -109 l3 -60 -70 3 c-92 3 -493 52 -523 63 -23 9 -23 10 20
43 24 18 67 48 95 68 l52 35 63 -13 c35 -7 124 -18 196 -24z m-1788 20 c8 0
14 -100 26 -425 6 -140 5 -148 -9 -117 -11 24 -17 81 -22 190 -6 165 -18 300
-30 341 -6 20 -4 23 10 18 10 -4 21 -7 25 -7z m175 -20 c37 -5 70 -11 72 -13
3 -2 0 -16 -6 -31 -13 -35 -13 -123 1 -303 11 -136 10 -145 -7 -159 -93 -73
-147 -106 -154 -95 -4 7 -10 79 -14 159 -4 81 -14 212 -22 291 -8 79 -13 150
-10 158 4 10 16 12 38 8 18 -3 64 -9 102 -15z m4652 -7 l101 -15 8 -147 c4
-80 8 -168 9 -196 l1 -50 -45 3 c-25 1 -96 10 -158 20 -129 19 -116 5 -132
147 -11 103 -13 225 -4 250 8 19 35 18 220 -12z m1219 -22 c144 -22 568 -93
573 -96 2 -1 0 -33 -4 -70 l-7 -67 -46 5 c-99 10 -750 113 -780 123 -11 4 -11
7 0 21 16 18 121 103 129 103 3 0 64 -9 135 -19z m-5630 -1 c33 -6 112 -15
175 -20 129 -9 150 -15 150 -39 0 -14 -2 -14 -11 -1 -7 11 -8 -51 -4 -207 l7
-223 -44 0 c-67 1 -387 35 -394 43 -13 13 -23 95 -30 249 -10 217 -4 224 151
198z m4645 -11 c35 -5 66 -11 67 -13 2 -1 -4 -17 -13 -35 -14 -27 -15 -55 -10
-164 3 -73 8 -151 12 -173 6 -41 5 -42 -55 -88 -34 -26 -66 -44 -71 -41 -6 3
-10 41 -11 83 0 42 -8 159 -17 260 l-17 182 25 0 c14 0 54 -5 90 -11z m-2755
-29 c50 -10 134 -24 187 -30 l97 -12 6 -63 c4 -35 4 -68 1 -73 -7 -11 -2 -12
-282 23 -110 14 -216 25 -235 25 -68 0 -64 13 23 88 50 42 89 68 98 65 8 -3
56 -13 105 -23z m3045 -25 l95 -22 12 -124 c6 -68 12 -152 12 -186 1 -74 13
-71 -159 -48 -170 24 -156 17 -169 82 -6 31 -11 108 -11 170 0 108 1 115 25
139 28 28 30 28 195 -11z m-4377 9 c13 -4 16 -11 11 -22 -20 -42 -12 -354 12
-438 5 -18 -9 -34 -83 -93 -48 -39 -91 -71 -94 -71 -15 0 -21 68 -44 539 l-5
104 93 -7 c50 -4 100 -10 110 -12z m307 -35 c41 -6 91 -14 110 -19 l35 -10 3
-209 c1 -146 -1 -212 -9 -217 -18 -11 -212 -4 -295 10 -42 7 -82 20 -89 27
-18 17 -49 316 -39 372 11 66 27 75 125 65 46 -4 118 -13 159 -19z m4342 -18
c4 -3 3 -24 -3 -46 -8 -28 -8 -77 0 -175 16 -196 19 -180 -46 -233 -32 -26
-61 -47 -64 -47 -3 0 -9 69 -12 153 -7 144 -20 292 -33 346 l-5 23 78 -7 c43
-4 81 -10 85 -14z m-2587 -26 c201 -23 189 -17 196 -100 3 -39 3 -73 -1 -77
-3 -4 -66 2 -140 13 -74 11 -175 24 -225 29 -139 14 -175 20 -175 30 0 5 33
36 73 69 61 52 77 61 102 57 17 -3 93 -12 170 -21z m2827 -2 c52 -11 79 -22
83 -32 4 -13 21 -16 85 -16 l80 0 4 -160 c3 -88 8 -176 11 -195 7 -34 5 -37
-53 -83 -33 -26 -65 -47 -71 -47 -7 0 -12 25 -12 63 -1 34 -5 116 -9 182 l-6
120 -2 -117 c-1 -65 -6 -118 -10 -118 -17 0 -218 29 -257 38 -37 7 -40 11 -47
47 -4 22 -10 96 -14 166 -9 162 -5 169 79 169 34 0 96 -8 139 -17z m1076 0
l112 -16 0 -64 0 -63 -47 0 c-86 0 -323 24 -323 33 0 16 113 127 129 127 9 0
67 -7 129 -17z m-5291 -9 c31 -6 32 -7 19 -33 -7 -14 -16 -43 -20 -63 -8 -43
10 -237 29 -320 l13 -58 -66 -56 c-98 -81 -99 -81 -106 -31 -7 54 -24 286 -31
451 l-7 129 69 -7 c37 -4 82 -9 100 -12z m261 -29 c90 -8 167 -17 172 -20 6
-4 10 -45 10 -93 0 -48 5 -135 11 -195 9 -84 9 -114 -1 -137 l-13 -31 -76 6
c-134 10 -245 26 -271 38 -31 16 -44 61 -59 211 -12 123 -8 176 15 214 17 26
5 25 212 7z m-4423 -45 c55 -5 231 -23 390 -39 160 -16 341 -33 402 -37 l113
-7 30 -80 c17 -43 29 -82 25 -85 -3 -3 -72 0 -153 6 -81 6 -237 16 -347 22
-244 13 -461 28 -575 40 -47 5 -121 9 -165 10 -44 1 -91 5 -104 9 -23 6 -20
10 50 68 41 33 85 72 98 87 26 28 4 27 236 6z m4639 -62 c9 -117 10 -207 4
-214 -3 -3 -9 48 -12 113 -4 65 -8 133 -11 151 -2 17 0 32 4 32 5 0 11 -37 15
-82z m131 67 c28 -3 62 -8 77 -11 27 -5 27 -6 10 -32 -14 -22 -17 -49 -15
-167 0 -83 7 -166 16 -203 l15 -63 -72 -60 c-39 -32 -77 -59 -83 -59 -8 0 -13
13 -13 33 0 45 -28 458 -36 525 l-6 54 29 -5 c15 -3 51 -8 78 -12z m1368 -14
c66 -11 132 -21 147 -21 55 0 60 -7 60 -77 l0 -65 -72 7 c-40 3 -138 15 -218
25 -80 10 -169 22 -198 25 l-53 7 43 31 c24 17 61 46 83 65 29 24 47 32 65 29
14 -3 78 -14 143 -26z m2751 9 c228 -35 249 -39 255 -47 3 -5 31 -9 61 -10 99
-5 101 -6 94 -66 -4 -31 1 -108 11 -186 l18 -133 -59 -59 c-32 -32 -64 -59
-70 -59 -8 0 -14 50 -18 168 -4 92 -11 201 -16 242 -7 60 -8 43 -5 -89 l4
-164 -77 6 c-42 3 -135 13 -207 21 -151 18 -193 20 -179 7 12 -11 108 -27 254
-41 171 -16 199 -20 205 -30 3 -4 8 -36 11 -69 l7 -61 -29 0 c-16 0 -85 9
-154 19 -69 11 -181 24 -250 30 -167 15 -210 21 -210 30 0 5 34 36 75 70 41
35 73 66 70 71 -18 29 -36 334 -21 358 10 17 82 15 230 -8z m-7125 -110 c10
-85 1 -122 -18 -69 -7 20 -9 57 -4 98 7 76 9 73 22 -29z m3421 61 l95 -17 7
-54 c3 -30 6 -128 7 -218 l1 -163 -32 5 c-18 3 -98 11 -176 17 -79 5 -154 14
-167 19 -18 7 -25 20 -33 72 -28 161 -25 324 6 355 13 13 31 14 106 9 50 -4
134 -15 186 -25z m1460 -31 c59 -12 206 -30 248 -30 l32 0 0 -76 0 -76 -57 5
c-82 7 -447 58 -452 62 -2 2 12 17 30 32 19 15 52 45 74 66 28 26 46 36 60 32
11 -3 40 -10 65 -15z m-1172 -7 c28 -5 32 -8 25 -27 -12 -31 -9 -154 6 -305
l13 -133 -28 -24 c-77 -64 -135 -106 -139 -103 -5 5 -22 285 -29 478 l-5 134
62 -7 c34 -4 77 -9 95 -13z m4107 -5 c1 -2 5 -85 9 -186 l6 -182 -58 6 c-31 4
-84 12 -116 18 -52 10 -61 15 -67 39 -15 57 -32 244 -25 281 l7 39 121 -6 c66
-3 122 -7 123 -9z m-3870 -29 c50 -6 115 -14 145 -18 47 -6 55 -10 53 -26 -1
-11 5 -94 12 -185 21 -236 21 -227 -17 -233 -18 -3 -76 1 -128 8 -52 8 -121
17 -153 20 -71 8 -72 10 -88 155 -22 211 -23 247 -4 276 15 23 22 26 53 20 21
-3 78 -11 127 -17z m-4230 -10 c121 -12 221 -22 222 -23 1 -1 16 -39 32 -84
25 -66 28 -84 17 -88 -8 -3 -97 2 -197 10 -101 8 -253 21 -336 27 -84 7 -153
15 -153 20 0 10 172 158 185 159 6 0 109 -9 230 -21z m5765 -34 c41 -8 109
-19 150 -23 l75 -7 3 -72 c2 -54 0 -73 -10 -73 -12 0 -333 43 -431 58 l-47 7
77 67 c43 37 85 65 93 63 8 -2 49 -11 90 -20z m-1195 1 c62 -10 69 -14 65 -31
-3 -11 -5 -101 -5 -200 1 -132 4 -186 14 -204 13 -24 11 -28 -60 -95 l-73 -70
-8 34 c-4 19 -12 112 -18 205 -6 94 -17 216 -24 273 l-12 102 25 -1 c15 0 58
-6 96 -13z m-6348 -32 l92 -7 -19 -24 c-11 -14 -21 -48 -25 -86 -7 -72 9 -311
24 -351 10 -25 7 -29 -51 -74 -34 -26 -82 -64 -107 -84 -24 -21 -47 -36 -49
-33 -6 6 -21 659 -15 668 3 5 17 6 32 3 14 -3 67 -9 118 -12z m2625 -6 c145
-11 158 -14 164 -32 3 -12 15 -51 26 -88 12 -37 19 -70 17 -73 -3 -2 -59 0
-125 5 -171 14 -527 40 -541 40 -25 0 -12 16 55 67 37 28 78 63 92 78 24 25
29 27 90 21 36 -3 136 -11 222 -18z m3999 1 c30 -6 81 -17 113 -23 l60 -12 2
-89 c2 -50 8 -143 14 -208 6 -66 10 -121 8 -123 -2 -1 -33 1 -68 6 -36 5 -90
10 -120 10 -66 0 -157 23 -179 45 -13 12 -16 49 -19 190 -3 125 -1 179 8 190
21 25 98 31 181 14z m-6206 -27 c83 -6 242 -16 355 -22 251 -14 702 -54 777
-70 1 0 14 -20 28 -43 24 -42 25 -49 25 -220 0 -146 -3 -178 -16 -191 -20 -20
-83 -21 -274 -2 -80 8 -199 18 -265 21 -66 4 -210 13 -320 20 -110 8 -274 17
-365 21 -209 8 -237 14 -256 60 -18 42 -31 227 -24 324 5 64 9 75 34 97 26 22
36 25 90 20 34 -2 129 -10 211 -15z m7676 -16 c46 -8 108 -17 137 -21 l52 -7
0 -65 0 -65 -37 6 c-21 4 -123 15 -226 25 -103 10 -190 21 -193 23 -2 3 26 30
63 61 76 63 80 64 204 43z m-1170 -7 l75 -12 -4 -88 c-3 -55 2 -131 12 -198
12 -76 14 -115 7 -128 -5 -10 -39 -47 -75 -82 -45 -45 -67 -60 -70 -50 -3 8
-12 109 -21 224 -9 116 -18 240 -22 278 -7 77 -14 73 98 56z m-3606 -31 c110
-12 202 -22 204 -24 2 -2 11 -37 21 -79 15 -66 16 -77 3 -82 -8 -3 -67 0 -131
6 -109 12 -200 20 -415 37 -48 4 -90 11 -93 15 -2 4 31 34 73 67 43 33 85 67
92 76 8 10 21 14 30 11 9 -4 106 -16 216 -27z m3910 -13 c71 -9 130 -17 132
-18 1 -1 6 -67 12 -147 6 -80 14 -173 17 -207 l6 -63 -33 0 c-55 0 -259 29
-279 40 -20 11 -26 30 -46 150 -19 120 -19 234 2 255 10 10 26 14 38 11 12 -3
80 -12 151 -21z m-3655 -31 c0 -21 -4 -33 -10 -29 -5 3 -10 19 -10 36 0 16 5
29 10 29 6 0 10 -16 10 -36z m5055 1 c50 -8 105 -18 123 -21 l32 -5 0 -64 c0
-61 -1 -65 -22 -65 -42 0 -401 50 -407 56 -3 3 23 33 59 65 56 51 69 59 95 55
17 -3 71 -12 120 -21z m-4345 -17 c0 -18 3 -51 5 -73 l5 -40 -20 44 c-14 29
-19 54 -15 73 9 38 25 35 25 -4z m3256 5 c11 -4 14 -31 14 -117 0 -104 20
-293 34 -314 7 -11 -142 -148 -151 -139 -3 4 -9 86 -14 184 -9 175 -25 350
-36 387 -5 18 -1 18 67 12 40 -4 78 -10 86 -13z m-3631 -4 c22 -6 101 -14 175
-17 l135 -7 17 -35 c20 -40 44 -128 37 -133 -2 -2 -76 2 -164 9 -88 7 -220 17
-292 22 -73 4 -136 12 -140 16 -4 4 13 24 37 44 25 20 61 53 80 73 38 41 53
44 115 28z m1056 -153 l4 -118 -60 6 c-33 4 -123 11 -200 16 -77 5 -178 14
-225 20 -47 5 -91 10 -97 10 -26 0 -11 18 67 84 l79 66 48 -11 c26 -6 111 -16
187 -23 131 -12 141 -11 158 6 11 11 18 33 19 61 1 89 17 1 20 -117z m2833
124 c54 -5 101 -12 104 -15 3 -2 9 -94 13 -202 9 -199 23 -367 35 -398 6 -15
1 -16 -52 -10 -152 17 -409 56 -415 63 -4 4 24 35 62 70 66 61 70 63 101 54
18 -6 84 -13 146 -16 90 -5 113 -4 110 6 -6 17 -48 25 -139 27 -85 1 -135 15
-149 40 -5 9 -16 91 -25 182 -13 124 -14 171 -6 193 11 28 13 29 64 22 28 -4
96 -11 151 -16z m-6142 -247 c3 -142 4 -260 2 -262 -15 -17 -23 83 -24 276 0
126 -1 231 0 236 0 4 4 7 9 7 4 0 11 -116 13 -257z m216 240 c18 -4 21 -10 15
-27 -13 -36 -3 -240 20 -418 2 -20 -183 -181 -195 -170 -9 9 -28 374 -28 525
l0 110 83 -7 c45 -4 92 -9 105 -13z m381 -4 c151 -17 145 -8 149 -241 2 -99 1
-190 -2 -203 l-6 -25 -133 1 c-171 1 -293 11 -308 26 -27 27 -51 360 -29 412
22 54 74 59 329 30z m5869 -24 c2 -2 -6 -16 -18 -32 -31 -42 -35 -118 -15
-275 l17 -137 -53 -60 c-30 -33 -59 -61 -65 -61 -19 0 -27 71 -44 380 -4 91
-12 174 -16 184 -7 18 -3 19 92 12 54 -4 100 -9 102 -11z m163 -26 c8 -4 38
-11 66 -15 28 -3 55 -9 60 -13 10 -6 38 -399 30 -408 -7 -6 -291 37 -300 46
-22 21 -44 279 -28 336 14 54 51 77 111 69 25 -4 52 -10 61 -15z m-5651 -10
l45 -10 0 -240 0 -240 -80 -55 c-60 -41 -81 -51 -87 -41 -12 23 -52 582 -42
598 7 11 78 6 164 -12z m-193 -112 c2 -67 5 -176 8 -242 4 -83 3 -115 -4 -104
-11 17 -22 469 -11 469 3 0 6 -55 7 -123z m536 107 c157 -20 173 -31 181 -117
13 -152 15 -346 3 -355 -24 -20 -98 -23 -253 -12 -127 9 -162 14 -176 28 -14
15 -17 46 -18 217 -2 110 -2 208 -1 218 3 39 77 45 264 21z m6860 -39 l57 -6
0 -65 c0 -54 -3 -64 -17 -64 -10 0 -92 7 -183 15 -91 8 -167 15 -170 15 -2 0
26 31 64 69 l68 68 61 -12 c34 -7 88 -16 120 -20z m-1303 11 c57 -10 74 -16
70 -27 -9 -26 -4 -172 9 -286 l14 -112 -36 -48 c-19 -26 -49 -61 -65 -76 l-29
-28 -6 38 c-4 21 -13 119 -22 218 -8 99 -20 210 -25 247 -6 37 -10 72 -10 77
0 13 4 13 100 -3z m-5155 -14 c54 -6 69 -11 66 -22 -25 -94 -23 -257 5 -400
l15 -75 -27 -20 c-15 -11 -57 -44 -93 -74 l-66 -53 -12 123 c-21 227 -37 505
-30 522 5 14 14 17 39 12 18 -3 65 -9 103 -13z m2020 -23 c66 -6 138 -14 160
-18 l40 -6 6 -70 c4 -39 3 -73 0 -78 -4 -4 -72 -1 -152 7 -79 8 -202 20 -274
26 -71 7 -133 15 -137 19 -4 3 27 37 70 74 75 65 78 67 122 62 25 -2 99 -9
165 -16z m3472 -13 c10 -3 72 -10 138 -16 125 -12 445 -57 452 -63 4 -5 9 -67
19 -269 l7 -138 -24 0 c-13 0 -100 11 -194 25 -93 14 -255 37 -360 50 -104 14
-204 27 -221 30 -31 5 -31 6 -42 93 -18 139 -25 258 -18 285 4 16 14 27 29 29
22 3 180 -16 214 -26z m-5668 -13 c-1 -34 -2 -35 -9 -13 -11 36 -11 50 0 50 6
0 10 -17 9 -37z m511 17 c41 -5 102 -9 135 -10 33 0 66 -4 74 -9 19 -12 22
-392 4 -433 -12 -26 -16 -28 -75 -28 -121 0 -342 29 -355 46 -18 24 -37 179
-37 301 0 97 2 114 19 133 22 24 50 24 235 0z m438 -36 l32 -5 -15 -29 c-24
-47 -29 -199 -11 -319 9 -58 16 -112 16 -122 0 -17 -146 -149 -166 -149 -7 0
-13 48 -18 138 -10 218 -25 445 -32 475 l-6 29 84 -7 c45 -3 98 -8 116 -11z
m1894 -44 c83 -12 159 -20 168 -17 19 5 30 -32 30 -105 0 -44 10 -43 -155 -23
-66 7 -179 17 -252 21 -72 4 -137 10 -144 15 -10 6 -6 14 16 31 17 12 52 43
79 69 44 41 53 46 79 38 16 -4 96 -18 179 -29z m-1615 10 c98 -11 181 -24 185
-28 11 -11 15 -414 4 -431 -7 -11 -42 -12 -200 -7 -105 4 -195 11 -199 15 -26
25 -53 370 -34 427 7 19 38 41 60 43 4 1 87 -8 184 -19z m440 -43 c1 -2 -7
-28 -18 -58 -22 -57 -21 -95 12 -349 l10 -75 -39 -35 c-68 -61 -123 -95 -131
-82 -14 23 -59 591 -48 609 5 7 206 -2 214 -10z m4712 13 l36 0 1 -148 c1 -81
7 -176 14 -210 l11 -64 -57 -75 c-55 -71 -58 -74 -67 -52 -4 13 -12 110 -17
214 -5 105 -13 226 -16 269 l-7 79 33 -6 c18 -4 49 -7 69 -7z m216 -21 c50 -6
93 -14 96 -17 4 -4 9 -91 12 -194 l6 -188 -120 0 c-138 0 -123 -17 -139 155
-11 125 -13 216 -4 239 7 19 29 20 149 5z m-3298 -10 c15 -6 80 -15 143 -21
160 -14 171 -16 176 -20 7 -8 17 -158 11 -158 -15 0 -445 50 -474 55 -18 3
-33 8 -33 11 0 7 134 142 142 143 4 1 19 -4 35 -10z m-1367 -19 c169 -16 155
-7 156 -94 1 -42 7 -133 14 -204 18 -184 25 -176 -149 -168 -152 8 -224 21
-241 41 -7 8 -16 49 -21 92 -5 43 -14 117 -20 164 -12 103 -1 165 34 179 12 5
42 7 67 5 25 -3 97 -9 160 -15z m296 -31 l81 -12 -5 -68 c-4 -60 8 -251 24
-365 6 -40 5 -41 -70 -109 -42 -37 -79 -66 -82 -63 -6 7 -64 530 -64 586 0 49
-4 48 116 31z m1639 -19 c36 -14 214 -40 269 -40 25 0 47 -3 49 -7 3 -5 6 -39
8 -78 l4 -70 -65 4 c-92 5 -428 46 -436 53 -3 4 16 26 43 50 26 23 59 55 73
71 13 15 25 27 27 27 1 0 14 -5 28 -10z m-6740 -20 c105 -6 255 -15 335 -21
80 -5 219 -14 310 -19 91 -5 239 -16 330 -25 91 -8 194 -16 230 -18 l65 -2 22
-75 c31 -108 31 -110 -21 -110 -47 0 -863 61 -1126 84 -91 8 -248 20 -350 27
-102 6 -191 15 -199 19 -9 5 2 20 39 51 29 24 69 59 89 76 26 24 43 31 61 28
14 -3 111 -9 215 -15z m5450 -5 c77 -8 140 -14 141 -14 1 -1 4 -45 7 -98 4
-54 12 -158 19 -230 6 -73 10 -135 7 -137 -2 -3 -40 2 -84 10 -44 8 -127 21
-184 28 -57 8 -107 18 -112 23 -10 10 -39 270 -39 352 0 31 5 62 12 69 15 15
59 15 233 -3z m327 -31 c46 -6 47 -6 33 -27 -25 -35 -19 -141 20 -408 l7 -45
-72 -63 c-40 -34 -76 -59 -80 -54 -8 10 -25 148 -45 373 -8 91 -18 182 -21
204 l-7 39 59 -7 c32 -3 80 -9 106 -12z m-2874 -224 l0 -35 -13 30 c-9 20 -14
66 -13 135 l1 105 12 -100 c7 -55 13 -116 13 -135z m3142 177 l155 -22 6 -95
c4 -52 10 -152 14 -222 l8 -128 -52 0 c-81 0 -242 20 -277 35 -34 14 -29 -6
-64 242 -13 92 -13 169 0 194 13 23 16 23 210 -4z m338 -44 c27 -4 32 -9 25
-22 -15 -29 -10 -361 6 -409 l14 -43 -58 -59 c-53 -54 -85 -73 -85 -52 0 4 -4
34 -10 67 -12 77 -40 413 -40 483 l0 54 58 -6 c31 -4 72 -10 90 -13z m-4505
-9 c97 -4 173 -12 181 -18 11 -9 56 -138 56 -162 0 -4 -73 -4 -162 -1 -242 9
-529 30 -526 39 2 4 41 42 88 83 l85 76 55 -6 c30 -2 130 -8 223 -11z m6127
-13 l115 -16 7 -40 c4 -22 7 -57 7 -77 1 -45 12 -43 -159 -24 -69 8 -157 17
-196 21 -106 10 -107 12 -33 95 63 71 64 72 104 65 22 -4 92 -14 155 -24z
m-1342 -15 c61 -7 115 -15 118 -19 6 -6 23 -429 17 -436 -5 -7 -244 18 -291
30 -70 19 -75 34 -80 239 l-4 177 23 17 c17 12 35 15 64 11 22 -4 91 -12 153
-19z m-6905 -16 c22 0 28 -3 20 -11 -12 -12 -83 -2 -83 13 0 6 7 7 16 4 9 -3
30 -6 47 -6z m-79 -26 c39 -8 71 -16 73 -17 1 -2 -1 -17 -6 -34 -7 -25 -3
-162 11 -343 4 -48 -5 -60 -97 -129 -53 -40 -102 -74 -110 -78 -13 -4 -15 37
-15 311 l0 317 38 -7 c20 -3 68 -13 106 -20z m7236 10 c60 -6 70 -9 64 -23 -4
-9 -9 -27 -11 -41 -7 -38 14 -342 26 -371 8 -23 6 -30 -22 -56 -44 -41 -117
-96 -121 -92 -8 10 -26 235 -26 334 -1 61 -5 141 -10 180 -9 73 -6 89 15 81 7
-2 45 -8 85 -12z m1605 -14 c110 -16 297 -44 415 -61 118 -17 216 -32 217 -33
2 -2 6 -37 9 -79 l7 -77 -40 0 c-22 0 -89 7 -149 16 -60 9 -138 20 -174 24
-247 33 -380 52 -461 65 -157 26 -147 14 -81 100 31 41 57 74 57 74 0 1 90
-13 200 -29z m-8273 -10 c187 -18 252 -35 262 -67 2 -10 6 -108 8 -218 l3
-200 -185 3 c-158 2 -283 11 -496 38 l-41 5 -7 72 c-18 180 -23 303 -14 335
19 69 69 72 470 32z m2334 -1 c82 -6 174 -8 205 -5 l56 7 11 -38 c7 -21 19
-60 27 -87 l15 -49 -93 7 c-278 20 -508 38 -552 44 l-49 7 94 68 c69 49 100
67 116 63 12 -3 88 -11 170 -17z m4677 -20 c42 -6 79 -15 82 -19 8 -12 24
-193 28 -317 l5 -113 -95 0 c-52 0 -126 7 -164 16 -65 15 -72 19 -85 49 -20
48 -40 349 -25 382 12 25 13 26 94 19 45 -3 117 -11 160 -17z m-6705 -5 c23
-6 23 -7 20 -178 -1 -94 1 -227 5 -296 7 -121 6 -124 -10 -90 -14 29 -17 78
-21 275 -3 185 -7 245 -18 262 -22 35 -19 38 24 27z m3069 -36 c-3 -7 -5 -2
-5 12 0 14 2 19 5 13 2 -7 2 -19 0 -25z m-2797 12 c21 -6 22 -8 8 -15 -10 -4
-46 0 -80 8 l-63 15 55 0 c30 0 66 -3 80 -8z m2525 -10 c61 -5 138 -10 171
-10 l62 0 10 -67 c6 -38 13 -76 17 -85 9 -22 -9 -23 -145 -8 -52 6 -177 17
-278 24 -100 7 -186 16 -190 20 -7 8 -3 12 104 94 60 47 72 52 104 48 19 -4
85 -11 145 -16z m4133 4 c44 -6 52 -10 46 -23 -27 -62 -28 -289 -3 -399 l13
-53 -57 -57 c-31 -31 -58 -54 -61 -52 -8 9 -26 186 -26 265 0 79 -12 207 -26
294 l-7 44 34 -6 c19 -4 58 -9 87 -13z m-6771 -16 l94 -23 -7 -66 c-4 -40 0
-125 11 -219 l17 -154 -24 -21 c-14 -11 -56 -46 -93 -77 -38 -32 -72 -58 -75
-58 -8 0 -29 308 -34 498 -2 88 0 142 7 142 5 0 52 -10 104 -22z m478 -3 c267
-28 298 -36 321 -90 16 -39 32 -332 20 -378 -6 -27 -7 -27 -99 -27 -122 0
-370 16 -479 31 -100 14 -89 -4 -108 164 -14 122 -12 235 3 265 26 51 103 59
342 35z m6525 -9 c41 -8 109 -17 150 -20 185 -15 192 -17 183 -40 -12 -32 -6
-218 11 -330 l14 -99 -63 -73 c-48 -55 -65 -69 -69 -56 -7 25 -24 165 -31 257
-11 152 -28 290 -37 305 -6 9 -7 -16 -4 -70 4 -47 9 -142 13 -212 6 -125 6
-128 -15 -128 -41 0 -251 30 -276 40 -38 14 -50 72 -50 246 0 167 4 180 57
187 18 2 34 5 37 5 3 1 39 -4 80 -12z m-3775 -30 c22 -3 117 -8 210 -11 l170
-5 11 -88 c6 -48 9 -90 5 -93 -12 -11 -609 45 -623 59 -9 10 155 151 172 147
8 -2 33 -6 55 -9z m5581 4 l62 0 4 -81 c2 -45 1 -85 -2 -90 -4 -5 -31 -4 -65
1 -33 6 -108 14 -168 19 -59 4 -110 11 -114 15 -3 3 3 16 14 29 11 12 35 44
53 71 l33 49 60 -7 c33 -3 88 -6 123 -6z m-1171 -54 c197 -32 364 -55 430 -62
102 -9 117 -14 110 -32 -15 -37 -17 -153 -5 -289 l13 -145 -54 -54 c-29 -30
-56 -54 -60 -54 -3 0 -12 87 -18 193 -7 105 -16 228 -20 272 l-8 80 -2 -85
c-1 -47 4 -176 11 -287 6 -111 9 -205 5 -209 -7 -7 -117 2 -507 42 -135 14
-253 29 -263 32 -16 6 -10 18 45 85 51 63 67 77 83 72 21 -7 88 -14 407 -41
180 -16 223 -15 205 2 -10 10 -220 33 -394 44 -173 11 -206 18 -222 49 -12 22
-41 257 -41 332 0 46 14 69 50 82 18 6 29 5 235 -27z m-6762 -244 c4 -327 -14
-332 -24 -7 -4 121 -10 233 -14 248 -7 26 -5 28 14 25 21 -3 22 -5 24 -266z
m209 252 c14 -4 16 -15 11 -77 -3 -41 2 -129 11 -202 24 -197 30 -178 -76
-268 -50 -42 -95 -74 -100 -69 -7 7 -28 418 -28 566 l0 69 83 -7 c45 -4 90 -9
99 -12z m371 6 c188 -8 223 -12 258 -30 60 -31 66 -55 71 -277 l5 -193 -66 0
c-70 0 -423 26 -504 36 -26 4 -50 10 -53 15 -9 15 -34 253 -34 330 0 66 3 78
23 96 20 19 42 29 72 32 6 0 108 -4 228 -9z m2464 -39 c39 -11 322 -17 345 -7
14 6 17 -1 22 -51 4 -32 9 -76 12 -97 l5 -39 -88 7 c-48 3 -153 13 -233 21
-80 9 -181 19 -224 23 l-80 7 90 72 c94 75 101 78 151 64z m-1828 -7 c17 -4
28 -10 25 -15 -7 -13 -69 -10 -139 6 l-60 13 71 1 c39 1 85 -2 103 -5z m-254
-16 c3 -7 11 -112 20 -233 23 -340 19 -394 -20 -240 -16 64 -39 456 -28 478 6
11 23 8 28 -5z m570 -18 c77 -6 190 -16 250 -21 61 -6 162 -14 225 -19 63 -5
124 -11 135 -14 22 -7 350 -42 515 -56 156 -13 415 -39 500 -49 41 -6 113 -13
160 -16 47 -4 155 -15 240 -25 85 -11 243 -28 350 -40 107 -11 249 -27 315
-35 66 -8 190 -22 275 -31 85 -8 196 -19 245 -25 96 -9 388 -50 393 -53 1 -2
7 -95 13 -207 5 -112 11 -213 12 -224 2 -24 49 -27 -438 25 -209 22 -600 62
-870 90 -269 27 -575 59 -680 70 -104 11 -489 49 -855 85 -366 36 -756 75
-867 87 l-202 21 -5 61 c-11 119 -14 262 -6 310 10 66 37 87 105 81 28 -3 113
-10 190 -15z m-385 -9 l55 -6 6 -210 c3 -116 8 -215 11 -221 7 -11 -167 -202
-177 -193 -3 4 -10 89 -16 190 -5 101 -14 231 -19 289 -6 58 -10 120 -10 139
l0 33 48 -7 c26 -4 72 -10 102 -14z m2595 -16 c33 -4 107 -15 164 -25 69 -13
109 -16 121 -10 15 8 18 3 24 -37 3 -25 6 -65 6 -90 l0 -43 -37 5 c-21 3 -146
17 -278 31 -132 14 -242 28 -245 31 -9 9 155 152 170 148 8 -2 42 -7 75 -10z
m3767 -12 c57 -5 67 -9 72 -27 2 -11 8 -105 12 -207 6 -181 6 -187 -14 -193
-31 -10 -224 11 -233 25 -12 20 -24 154 -24 275 0 136 7 149 75 140 25 -4 75
-10 112 -13z m211 -40 c5 -3 6 -17 3 -32 -7 -34 13 -348 24 -383 8 -24 2 -36
-47 -99 -30 -39 -59 -67 -63 -62 -4 4 -13 110 -19 234 -6 124 -14 256 -18 293
l-6 68 59 -7 c32 -4 63 -10 67 -12z m198 1 c37 -4 71 -9 77 -13 5 -3 13 -99
17 -213 l7 -208 -24 -9 c-34 -13 -189 6 -208 25 -11 11 -18 60 -27 187 -7 94
-9 181 -6 192 11 38 35 57 68 51 16 -3 60 -8 96 -12z m-3586 -29 c33 -8 117
-18 187 -21 l126 -7 11 -75 c6 -41 10 -77 7 -79 -7 -7 -536 45 -545 53 -5 4
140 143 149 143 3 0 32 -6 65 -14z m625 -74 c25 -6 93 -13 152 -17 l106 -7 6
-45 c3 -25 6 -60 6 -78 0 -42 -4 -42 -186 -15 -71 11 -166 23 -211 27 -46 3
-83 11 -83 16 0 6 28 39 63 74 44 45 68 62 82 58 11 -2 40 -8 65 -13z m-6530
-80 c96 -11 246 -24 334 -28 l158 -8 33 -92 c18 -51 31 -94 29 -96 -2 -2 -32
0 -66 4 -35 5 -239 24 -455 44 -216 20 -410 39 -432 43 l-40 7 97 77 c86 68
101 76 132 73 19 -2 114 -13 210 -24z m7208 -11 c62 -4 121 -7 130 -6 19 1 29
-34 31 -111 1 -63 13 -60 -165 -34 -71 11 -163 23 -204 26 -111 9 -142 15
-138 27 2 6 37 39 78 73 l75 62 40 -14 c22 -8 91 -18 153 -23z m482 -65 c47
-8 108 -15 136 -15 l52 0 12 -81 c6 -45 9 -83 7 -86 -3 -2 -33 0 -68 5 -35 5
-138 20 -229 32 -91 13 -167 24 -169 26 -2 2 25 35 60 74 54 60 67 70 89 65
14 -3 63 -12 110 -20z m-6675 -10 c66 -7 207 -17 313 -21 127 -5 195 -11 197
-18 33 -132 45 -189 41 -194 -4 -3 -72 2 -154 11 -81 8 -285 28 -454 44 -170
15 -308 31 -308 34 0 4 28 30 63 57 34 28 76 64 92 82 25 26 35 30 60 25 17
-3 84 -12 150 -20z m1273 -95 c117 -8 206 -18 211 -24 4 -6 17 -47 28 -91 11
-44 24 -88 28 -97 6 -15 2 -18 -26 -18 -74 1 -860 77 -867 84 -4 4 9 21 28 38
19 17 60 53 90 81 30 28 68 53 84 56 17 4 73 1 125 -5 53 -6 187 -17 299 -24z
m4552 11 l65 -20 -3 -73 c-3 -63 19 -290 34 -353 4 -15 -14 -41 -69 -100 l-75
-80 -6 55 c-3 30 -10 100 -16 155 -17 149 -38 429 -33 438 3 4 12 6 21 3 10
-3 46 -14 82 -25z m100 8 c0 -13 -44 -11 -64 4 -15 11 -12 12 23 9 23 -2 41
-8 41 -13z m315 -34 c94 -14 192 -29 220 -33 l49 -7 3 -60 c2 -33 7 -132 12
-220 5 -88 6 -164 1 -168 -4 -5 -52 -4 -106 1 -55 6 -173 18 -264 27 -91 9
-174 19 -186 21 -18 3 -22 17 -37 141 -18 147 -22 270 -9 290 12 19 84 42 117
37 17 -2 107 -15 200 -29z m-4230 -30 c66 -8 415 -44 775 -80 2126 -213 2930
-299 2942 -318 4 -7 8 -26 8 -43 0 -17 3 -59 7 -94 l6 -63 -69 6 c-102 8
-1263 126 -1304 132 -42 6 -539 53 -1420 135 -355 33 -703 67 -775 75 -71 8
-213 21 -315 30 -202 17 -230 21 -230 33 0 5 41 54 92 110 89 98 93 101 128
97 19 -3 89 -12 155 -20z m5941 -4 c64 -12 174 -16 197 -6 15 6 17 -1 17 -79
l0 -86 -31 0 c-27 0 -208 20 -327 36 l-42 5 62 70 c35 38 66 69 69 69 4 0 28
-4 55 -9z m-1331 -52 l61 -10 2 -87 c2 -92 19 -285 28 -338 5 -28 -1 -39 -56
-98 -34 -36 -66 -66 -70 -66 -10 0 -19 73 -30 270 -5 91 -13 204 -16 253 -8
98 -14 93 81 76z m335 -19 c30 -5 108 -14 172 -21 64 -7 121 -15 126 -18 5 -3
12 -106 16 -228 l7 -223 -23 0 c-39 0 -430 39 -466 46 -18 4 -37 14 -41 23 -5
9 -14 79 -20 156 -6 77 -13 165 -16 195 -5 57 0 73 25 83 17 7 138 0 220 -13z
m1578 10 l42 0 0 -91 0 -92 -52 6 c-197 23 -236 28 -264 35 l-32 7 52 73 51
73 80 -6 c44 -2 99 -5 123 -5z m-1170 -81 c26 -7 50 -14 54 -18 3 -3 12 -104
18 -224 l12 -218 -54 -58 c-29 -33 -58 -59 -64 -60 -15 -1 -28 168 -45 554 -2
41 2 42 79 24z m300 -6 c42 -5 55 -10 62 -27 4 -12 11 -117 15 -235 l8 -213
-126 4 c-72 2 -131 8 -137 14 -6 6 -15 86 -20 180 -5 93 -12 198 -16 233 l-6
64 84 -7 c45 -4 107 -9 136 -13z m372 -44 c63 -7 120 -17 127 -23 9 -8 14 -70
18 -196 3 -102 8 -209 10 -237 l5 -53 -64 0 c-71 0 -164 16 -183 32 -9 7 -13
38 -13 90 0 44 -5 123 -10 176 -6 53 -13 120 -16 148 -4 45 -9 53 -37 67 l-32
17 40 -5 c22 -2 92 -10 155 -16z m-205 -8 l50 -18 12 -129 c6 -71 12 -173 12
-228 l1 -98 -62 -71 -63 -70 -6 129 c-21 444 -22 504 -8 503 8 0 37 -8 64 -18z
m682 -68 c58 -5 61 -7 67 -36 3 -16 6 -121 6 -233 l0 -204 -32 1 c-18 0 -69 6
-113 12 l-79 12 -9 40 c-12 49 -15 383 -4 409 6 16 14 18 55 12 26 -4 75 -9
109 -13z m-252 -7 l50 -13 1 -174 c0 -96 6 -193 11 -217 11 -43 11 -44 -38
-103 -27 -32 -53 -59 -58 -59 -4 0 -11 87 -15 193 -3 105 -9 236 -13 290 -3
55 -2 97 3 97 5 -1 32 -7 59 -14z m-2030 -185 c88 -11 192 -23 231 -27 l70 -6
11 -92 c6 -50 10 -92 8 -94 -4 -4 -697 68 -728 76 l-28 7 76 86 76 85 62 -8
c34 -4 134 -17 222 -27z m774 -106 c298 -35 275 -26 281 -114 3 -40 3 -77 0
-82 -3 -4 -37 -4 -75 2 -39 5 -189 23 -334 39 -145 16 -265 31 -268 33 -2 3
26 39 64 81 58 65 72 76 93 71 14 -3 122 -17 239 -30z m729 -91 c21 -4 22 -9
22 -85 l0 -81 -47 4 c-128 12 -349 42 -357 49 -5 4 16 35 45 68 l54 61 130 -6
c72 -3 140 -7 153 -10z m255 -59 c26 -8 83 -15 127 -17 l80 -3 0 -73 0 -74
-37 6 c-21 3 -99 13 -173 22 -74 9 -143 19 -153 23 -15 5 -10 15 33 69 28 34
56 62 63 62 7 0 33 -7 60 -15z m497 -50 c107 -12 100 -6 100 -90 0 -41 -1 -75
-2 -75 -2 0 -73 9 -158 20 -85 11 -161 20 -167 20 -24 0 -13 21 39 82 51 58
54 60 93 55 22 -3 65 -9 95 -12z"/>
<path d="M2993 4720 c-58 -24 -74 -119 -28 -165 18 -19 35 -25 68 -25 23 0 48
-5 55 -12 16 -16 38 4 26 24 -5 7 -9 41 -9 75 0 49 -4 67 -20 82 -25 24 -63
33 -92 21z m67 -49 c15 -28 13 -71 -4 -71 -7 0 -16 -9 -19 -20 -3 -11 -10 -20
-16 -20 -19 0 -51 39 -51 63 0 55 66 91 90 48z"/>
<path d="M3730 4605 c0 -8 12 -44 26 -80 19 -48 31 -65 43 -63 9 2 17 12 19
23 7 38 21 38 36 1 21 -51 45 -44 67 19 10 28 18 60 18 73 1 35 -25 26 -41
-15 l-16 -38 -18 42 c-23 51 -49 57 -57 13 -8 -40 -20 -38 -36 5 -12 35 -41
49 -41 20z"/>
<path d="M4517 4533 c-4 -3 -7 -41 -7 -84 0 -67 3 -80 19 -89 29 -15 114 -13
109 3 -3 6 -13 13 -24 15 -53 8 -64 13 -64 32 0 14 8 20 33 22 42 4 41 20 -3
34 -47 16 -44 28 8 32 44 3 50 10 30 30 -13 13 -90 17 -101 5z"/>
<path d="M5244 4427 c-10 -26 1 -150 13 -154 7 -3 13 8 15 24 2 22 8 28 28 28
19 0 26 -7 34 -32 5 -18 15 -33 22 -33 9 0 12 19 11 71 -2 61 -5 74 -26 90
-27 22 -89 26 -97 6z m71 -30 c21 -16 13 -37 -15 -37 -22 0 -34 15 -26 35 7
19 17 19 41 2z"/>
<path d="M5920 4330 c0 -6 11 -15 25 -22 21 -9 24 -18 27 -71 2 -37 8 -62 16
-65 9 -3 12 13 12 58 0 53 3 63 20 67 24 6 26 28 4 37 -26 10 -104 7 -104 -4z"/>
<path d="M6600 4222 c0 -13 8 -37 17 -55 9 -18 19 -45 22 -60 8 -40 25 -34 32
10 3 21 13 51 22 67 22 40 9 55 -19 23 l-22 -26 -26 32 c-24 30 -25 31 -26 9z"/>
<path d="M8470 3941 c-36 -69 43 -148 93 -93 23 25 21 68 -3 92 -26 26 -76 26
-90 1z m70 -32 c8 -15 8 -24 0 -34 -14 -17 -37 -9 -45 16 -13 39 26 55 45 18z"/>
<path d="M3962 3878 c-29 -29 -10 -75 40 -95 21 -8 37 -21 35 -27 -6 -17 -42
-19 -57 -1 -15 19 -40 20 -40 2 0 -24 35 -47 71 -47 81 0 93 59 22 98 -24 13
-43 30 -43 38 0 18 24 18 40 -1 15 -19 40 -20 40 -2 0 38 -80 63 -108 35z"/>
<path d="M9036 3873 c-8 -8 -8 -56 0 -105 8 -46 34 -52 34 -9 0 25 4 30 28 33
33 4 41 37 15 60 -21 18 -67 31 -77 21z m49 -43 c3 -5 -1 -10 -9 -10 -9 0 -16
5 -16 10 0 6 4 10 9 10 6 0 13 -4 16 -10z"/>
<path d="M10363 3600 c0 -30 2 -43 4 -27 2 15 2 39 0 55 -2 15 -4 2 -4 -28z"/>
<path d="M6807 3563 c-9 -8 -9 -76 -1 -125 9 -50 34 -51 34 -2 0 31 3 35 23
32 18 -2 23 -10 25 -40 2 -25 8 -38 18 -38 17 0 20 103 4 145 -12 31 -30 24
-30 -11 0 -17 -6 -24 -19 -24 -14 0 -21 10 -25 35 -7 34 -15 42 -29 28z"/>
<path d="M8700 5329 c0 -57 19 -217 40 -349 28 -170 29 -173 45 -166 19 7 501
-88 518 -103 8 -6 21 -9 29 -6 13 5 447 -75 513 -95 17 -5 71 -16 120 -25 149
-27 369 -75 387 -85 10 -6 30 -10 45 -10 26 0 157 -27 368 -75 139 -32 137
-35 100 150 -8 39 -19 133 -26 210 -6 77 -15 150 -20 163 -5 13 -25 30 -44 38
-59 24 -213 51 -335 58 -82 5 -119 11 -131 22 -10 9 -76 26 -156 40 -76 13
-183 33 -238 44 -55 10 -170 32 -255 49 -127 24 -292 49 -370 56 -9 0 -21 5
-28 9 -29 18 -235 59 -402 82 -63 8 -125 17 -137 21 -21 5 -23 1 -23 -28z
m161 -5 l37 -5 11 -117 c7 -64 16 -136 20 -159 8 -41 8 -41 -60 -109 -43 -42
-72 -65 -78 -59 -13 15 -69 365 -71 448 0 20 12 20 141 1z m229 -43 c87 -22
158 -45 161 -52 4 -8 13 -66 19 -129 6 -63 14 -127 16 -142 4 -20 1 -28 -9
-28 -18 0 -160 26 -248 46 l-66 15 -11 72 c-28 177 -34 260 -19 257 1 -1 72
-18 157 -39z m298 -65 c40 -7 74 -15 76 -17 2 -2 6 -77 10 -165 l7 -162 -66
-56 c-36 -31 -70 -56 -75 -56 -13 0 -18 25 -25 120 -4 47 -13 141 -21 210 -8
69 -14 128 -14 132 0 11 22 9 108 -6z m257 -39 l150 -34 17 -149 c9 -82 15
-154 13 -160 -4 -13 -48 -7 -212 28 l-101 21 -6 56 c-9 89 -19 271 -15 271 2
0 72 -15 154 -33z m273 -61 c35 -8 65 -16 68 -19 3 -3 10 -47 15 -99 5 -51 12
-121 15 -156 6 -57 5 -65 -17 -88 -30 -33 -119 -98 -124 -92 -6 5 -21 122 -35
268 -6 63 -14 134 -17 158 -7 49 -6 49 95 28z m389 -70 c1 -1 4 -22 7 -47 2
-24 10 -93 16 -152 7 -60 9 -111 6 -114 -3 -3 -68 7 -145 22 l-139 28 -6 46
c-19 131 -34 266 -30 272 3 5 283 -47 291 -55z m184 -42 c3 -2 9 -34 12 -71 4
-37 11 -109 17 -159 l11 -91 -67 -67 c-45 -47 -69 -65 -76 -58 -6 6 -14 61
-19 124 -4 62 -13 147 -18 188 -6 41 -11 92 -11 114 l0 38 73 -7 c39 -4 75 -9
78 -11z m150 -14 c128 -29 155 -42 162 -77 3 -16 9 -87 13 -156 l7 -127 -24 0
c-50 1 -223 48 -235 65 -7 9 -15 44 -19 78 -3 34 -10 86 -16 116 -14 82 -12
121 6 121 8 0 56 -9 106 -20z m-1551 -45 c58 -14 126 -28 151 -31 42 -6 48 -9
53 -36 7 -36 8 -123 1 -129 -4 -5 -466 80 -474 87 -2 2 25 35 60 73 49 54 69
70 84 66 11 -3 67 -17 125 -30z m515 -99 c44 -13 112 -29 151 -35 l71 -12 7
-46 c8 -62 8 -113 -1 -113 -9 0 -404 77 -441 85 -13 3 -22 9 -20 14 4 9 141
130 148 130 3 0 41 -10 85 -23z m575 -110 c164 -39 152 -31 166 -116 7 -41 11
-77 9 -81 -4 -6 -405 72 -443 86 -16 6 127 146 143 141 6 -2 62 -15 125 -30z
m528 -115 c62 -15 116 -32 121 -37 8 -9 31 -113 31 -141 0 -7 -8 -13 -17 -13
-25 0 -395 80 -411 89 -10 6 1 24 40 69 63 74 68 75 236 33z"/>
<path d="M11290 5000 c-8 -5 -40 -17 -70 -26 -174 -51 -211 -287 -70 -448 35
-39 103 -79 157 -91 56 -12 135 18 177 67 50 58 47 56 80 80 39 29 56 75 56
151 0 113 -70 219 -174 262 -40 17 -133 20 -156 5z m145 -34 c93 -43 154 -138
155 -240 0 -62 -24 -117 -58 -131 -55 -22 -79 -24 -127 -10 -69 20 -118 64
-156 140 -27 55 -31 72 -27 120 5 64 27 99 78 126 45 25 74 24 135 -5z m-231
-61 c-51 -124 48 -308 189 -350 28 -8 57 -15 65 -15 19 0 10 -20 -19 -43 -85
-63 -218 -25 -289 82 -66 99 -75 211 -25 297 26 45 48 63 77 64 16 0 16 -3 2
-35z"/>
</g>
</svg>
